<?xml version="1.0" encoding="UTF-8" standalone="no"?><!DOCTYPE svg PUBLIC "-//W3C//DTD SVG 1.1//EN" "http://www.w3.org/Graphics/SVG/1.1/DTD/svg11.dtd"><svg width="100%" height="100%" viewBox="0 0 156 227" version="1.1" xmlns="http://www.w3.org/2000/svg" xmlns:xlink="http://www.w3.org/1999/xlink" xml:space="preserve" xmlns:serif="http://www.serif.com/" style="fill-rule:evenodd;clip-rule:evenodd;stroke-linecap:round;stroke-linejoin:round;stroke-miterlimit:1.5;"><g id="body"><circle cx="77.653" cy="77.653" r="75.653" style="fill:#afceff;stroke:#000;stroke-width:4px;"/><g><path d="M72.407,147.922l0,29.756c1.509,2.094 1.771,4.663 1.771,7.439c0,2.776 -0.262,5.345 -1.771,7.439l0,31.856l-21.944,0l-0,-31.856c-1.509,-2.094 -1.771,-4.663 -1.771,-7.439c0,-2.776 0.262,-5.345 1.771,-7.439l0,-36.025" style="fill:#afceff;stroke:#000;stroke-width:4px;"/><path d="M82.899,147.922l0,29.756c-1.509,2.094 -1.771,4.663 -1.771,7.439c0,2.776 0.262,5.345 1.771,7.439l0,31.856l21.944,0l0,-31.856c1.509,-2.094 1.771,-4.663 1.771,-7.439c0,-2.776 -0.262,-5.345 -1.771,-7.439l-0,-36.025" style="fill:#afceff;stroke:#000;stroke-width:4px;"/></g></g><path d="M51.174,68.04c1.022,-2.63 5.088,-4.598 9.943,-4.598c4.855,0 8.921,1.968 9.943,4.598" style="fill:none;stroke:#000;stroke-width:4px;"/><path d="M84.246,68.04c1.022,-2.63 5.088,-4.598 9.943,-4.598c4.855,0 8.921,1.968 9.943,4.598" style="fill:none;stroke:#000;stroke-width:4px;"/><path d="M96.181,90.168c0,0 -1.463,6.282 -6.312,8.953c-4.597,2.532 -10.91,0.99 -10.91,0.99" style="fill:none;stroke:#000;stroke-width:4px;"/><g id="shoes"><path d="M55.633,224.411c0,0 -5.628,-0.055 -6.521,-0.055c-14.045,0 -13.042,-3.932 -13.042,-8.775c0,-4.843 5.844,-8.775 13.042,-8.775c5.237,0 9.757,2.081 11.831,5.08l12.948,0l0,12.525l-18.258,0Z" style="fill:#ffa5e9;stroke:#000;stroke-width:4px;"/><path d="M87.927,224.411c0,0 -5.628,-0.055 -6.521,-0.055c-14.045,0 -13.042,-3.932 -13.042,-8.775c0,-4.843 5.844,-8.775 13.042,-8.775c5.237,0 9.757,2.081 11.831,5.08l12.948,0l0,12.525l-18.258,0Z" style="fill:#ffa5e9;stroke:#000;stroke-width:4px;"/></g></svg>