<?xml version="1.0" encoding="UTF-8" standalone="no"?>
<!DOCTYPE svg PUBLIC "-//W3C//DTD SVG 1.1//EN" "http://www.w3.org/Graphics/SVG/1.1/DTD/svg11.dtd">
<svg width="100%" height="100%" viewBox="0 0 741 944" version="1.1" xmlns="http://www.w3.org/2000/svg" xmlns:xlink="http://www.w3.org/1999/xlink" xml:space="preserve" xmlns:serif="http://www.serif.com/" style="fill-rule:evenodd;clip-rule:evenodd;stroke-linecap:round;stroke-linejoin:round;stroke-miterlimit:1.5;">
    <g transform="matrix(1,0,0,1,-5343.361242,-906.411379)">
        <g transform="matrix(1,0,0,1,-0.094488,0)">
            <g transform="matrix(0.86428,0,0,0.824711,5109.635741,-322.546058)">
                <path d="M830.514,2169.025C830.514,2169.025 972.88,2208.983 970.462,2208.983C976.327,2204.457 997.959,2205.613 1007.559,2208.476C1035.674,2216.86 1054.559,2242.939 1054.559,2271.355C1054.559,2288.603 1046.086,2312.882 1046.086,2312.882L1049,2472L944,2472L944,2306.811C948.58,2306.811 718.891,2246.184 718.891,2246.184" style="fill:rgb(255,247,157);stroke:black;stroke-width:19.73px;"/>
            </g>
        </g>
        <g transform="matrix(1,0,0,1,-0.094488,0)">
            <g transform="matrix(-1.348374,0,0,0.954972,7068.327523,-475.750641)">
                <path d="M796,2295.238C796,2295.238 778.739,2295 776,2295C732.923,2295 736,2277.973 736,2257C736,2236.027 753.923,2219 776,2219C792.061,2219 805.924,2228.013 812.287,2241L852,2241L852,2295.238L796,2295.238Z" style="fill:rgb(175,206,255);stroke:black;stroke-width:14.27px;"/>
            </g>
        </g>
        <g transform="matrix(1,0,0,1,-0.094488,0)">
            <g transform="matrix(0.86428,0,0,0.86428,4730.371766,-161.283849)">
                <circle cx="1081" cy="1607" r="362" style="fill:rgb(255,247,157);stroke:black;stroke-width:19.28px;"/>
            </g>
        </g>
        <g transform="matrix(1,0,0,1,-0.094488,0)">
            <g transform="matrix(0.86428,0,0,0.824711,4791.64747,-197.225465)">
                <path d="M1049,2088.439L1049,2237.652C1056.22,2248.151 1057.475,2261.036 1057.475,2274.954C1057.475,2288.872 1056.22,2301.756 1049,2312.256L1049,2472L944,2472L944,2312.256C936.78,2301.756 935.525,2288.872 935.525,2274.954C935.525,2261.036 936.78,2248.151 944,2237.652L944,2088.439" style="fill:rgb(255,247,157);stroke:black;stroke-width:19.73px;"/>
            </g>
        </g>
        <g transform="matrix(1,0,0,1,-0.094488,0)">
            <g transform="matrix(0.79953,-0.328226,0.328226,0.79953,4544.807703,172.278657)">
                <g transform="matrix(0.42007,0.42007,-0.42007,0.42007,1216.334679,578.655822)">
                    <path d="M765.142,1549.142L812,1542L804.858,1588.858" style="fill:none;stroke:rgb(255,221,173);stroke-width:16.23px;"/>
                </g>
                <path d="M909.684,1567.5L871,1567.5" style="fill:none;stroke:rgb(255,221,173);stroke-width:9.64px;"/>
            </g>
        </g>
        <g transform="matrix(1,0,0,1,-0.094488,0)">
            <g transform="matrix(0.639103,-0.262367,0.231372,0.563603,4847.925564,453.852701)">
                <path d="M926.48,1602.209C932.596,1584.356 956.938,1571 986,1571C1015.062,1571 1039.404,1584.356 1045.52,1602.209" style="fill:none;stroke:black;stroke-width:25.59px;"/>
            </g>
        </g>
        <g transform="matrix(1,0,0,1,-0.094488,0)">
            <g transform="matrix(0.684663,0.092335,0.081427,-0.603781,5068.897453,2074.370314)">
                <path d="M926.48,1602.209C926.48,1602.209 952.869,1570.245 986,1571C1017.407,1571.716 1045.52,1602.209 1045.52,1602.209" style="fill:none;stroke:black;stroke-width:25.59px;"/>
            </g>
        </g>
        <g transform="matrix(1,0,0,1,-0.094488,0)">
            <g transform="matrix(-1.348374,0,0,0.954972,6750.339251,-350.430048)">
                <path d="M796,2295.238C796,2295.238 778.739,2295 776,2295C732.923,2295 736,2277.973 736,2257C736,2236.027 753.923,2219 776,2219C792.061,2219 805.924,2228.013 812.287,2241L852,2241L852,2295.238L796,2295.238Z" style="fill:rgb(175,206,255);stroke:black;stroke-width:14.27px;"/>
            </g>
        </g>
    </g>
</svg>
