<?xml version="1.0" encoding="UTF-8" standalone="no"?><!DOCTYPE svg PUBLIC "-//W3C//DTD SVG 1.1//EN" "http://www.w3.org/Graphics/SVG/1.1/DTD/svg11.dtd"><svg width="100%" height="100%" viewBox="0 0 155 227" version="1.1" xmlns="http://www.w3.org/2000/svg" xmlns:xlink="http://www.w3.org/1999/xlink" xml:space="preserve" xmlns:serif="http://www.serif.com/" style="fill-rule:evenodd;clip-rule:evenodd;stroke-linecap:round;stroke-linejoin:round;stroke-miterlimit:1.5;"><path d="M89.522,144.797l11.538,27.186c-0.567,2.498 0.239,4.568 1.316,7.104c1.076,2.536 2.263,5.161 4.453,6.489l12.353,29.105l20.148,-9.267l-12.353,-29.105c0.567,-2.498 -0.239,-4.568 -1.316,-7.104c-1.076,-2.536 -2.263,-5.161 -4.453,-6.489l-13.97,-32.915" style="fill:#ffa5e9;stroke:#000;stroke-width:4px;"/><path d="M134.807,207.724c0,0 5.12,-2.233 5.936,-2.579c12.832,-5.446 10.391,-8.65 8.513,-13.074c-1.878,-4.425 -8.742,-5.751 -15.318,-2.96c-4.785,2.031 -8.107,5.685 -8.84,9.229l-11.83,5.021l4.857,11.443l16.682,-7.08Z" style="fill:#cef597;stroke:#000;stroke-width:4px;"/><circle cx="77.089" cy="77.089" r="75.089" style="fill:#ffa5e9;stroke:#000;stroke-width:4px;"/><path d="M84.95,148.493l-0,29.534c1.498,2.078 1.965,4.628 1.965,7.383c0,2.755 -0.468,5.305 -1.965,7.383l0,31.618l-21.572,-0l-0,-31.618c-1.498,-2.078 -1.758,-4.628 -1.758,-7.383c0,-2.755 0.26,-5.305 1.758,-7.383l0,-29.534" style="fill:#ffa5e9;stroke:#000;stroke-width:4px;"/><g><path d="M107.58,64.812l4.705,3.461l-4.705,3.461" style="fill:none;stroke:#d486c4;stroke-width:2px;"/><path d="M112.286,68.273l-8.024,0" style="fill:none;stroke:#d486c4;stroke-width:2px;"/></g><path d="M118.843,67.547c1.014,-2.611 5.05,-4.563 9.869,-4.563c4.819,0 8.855,1.953 9.869,4.563" style="fill:none;stroke:#000;stroke-width:4px;"/><path d="M116.759,87.122c0,0 1.452,6.235 6.265,8.886c4.562,2.513 10.828,0.982 10.828,0.982" style="fill:none;stroke:#000;stroke-width:4px;"/><path d="M79.851,224.411c0,0 5.586,-0.055 6.472,-0.055c13.94,0 12.944,-3.903 12.944,-8.709c0,-4.807 -5.8,-8.709 -12.944,-8.709c-5.198,0 -9.684,2.066 -11.743,5.042l-12.852,0l0,12.431l18.122,0Z" style="fill:#cef597;stroke:#000;stroke-width:4px;"/></svg>