<?xml version="1.0" encoding="UTF-8" standalone="no"?>
<!DOCTYPE svg PUBLIC "-//W3C//DTD SVG 1.1//EN" "http://www.w3.org/Graphics/SVG/1.1/DTD/svg11.dtd">
<svg width="100%" height="100%" viewBox="0 0 648 944" version="1.1" xmlns="http://www.w3.org/2000/svg" xmlns:xlink="http://www.w3.org/1999/xlink" xml:space="preserve" xmlns:serif="http://www.serif.com/" style="fill-rule:evenodd;clip-rule:evenodd;stroke-linecap:round;stroke-linejoin:round;stroke-miterlimit:1.5;">
    <g transform="matrix(1,0,0,1,-6356.998183,-906.411379)">
        <g transform="matrix(1,0,0,1,-0.094488,0)">
            <g id="body" transform="matrix(0.870777,0,0,0.870777,5750.657543,-171.984807)">
                <g transform="matrix(1,0,0,1,-13,3)">
                    <circle cx="1081" cy="1607" r="362" style="fill:rgb(187,187,187);stroke:black;stroke-width:19.14px;"/>
                </g>
                <g transform="matrix(1,0,0,1,-0.577204,3)">
                    <g transform="matrix(1,0,0,0.954217,-5.524816,-49.585617)">
                        <path d="M1049,2088.439L1049,2237.652C1056.22,2248.151 1057.475,2261.036 1057.475,2274.954C1057.475,2288.872 1056.22,2301.756 1049,2312.256L1049,2472L944,2472L944,2312.256C936.78,2301.756 935.525,2288.872 935.525,2274.954C935.525,2261.036 936.78,2248.151 944,2237.652L944,2057" style="fill:rgb(187,187,187);stroke:black;stroke-width:19.58px;"/>
                    </g>
                    <g transform="matrix(-1,0,0,0.954217,2142.679225,-49.585617)">
                        <path d="M1049,2088.439L1049,2237.652C1056.22,2248.151 1057.475,2261.036 1057.475,2274.954C1057.475,2288.872 1056.22,2301.756 1049,2312.256L1049,2472L944,2472L944,2312.256C936.78,2301.756 935.525,2288.872 935.525,2274.954C935.525,2261.036 936.78,2248.151 944,2237.652L944,2057" style="fill:rgb(187,187,187);stroke:black;stroke-width:19.58px;"/>
                    </g>
                </g>
            </g>
        </g>
        <g transform="matrix(1,0,0,1,-0.094488,0)">
            <g transform="matrix(0.696055,0,0,0.613826,5925.437731,206.431976)">
                <path d="M926.48,1602.209C932.596,1584.356 956.938,1571 986,1571C1015.062,1571 1039.404,1584.356 1045.52,1602.209" style="fill:none;stroke:black;stroke-width:25.4px;"/>
            </g>
        </g>
        <g transform="matrix(1,0,0,1,-0.094488,0)">
            <g transform="matrix(0.696055,0,0,0.613826,6063.237225,206.431976)">
                <path d="M926.48,1602.209C932.596,1584.356 956.938,1571 986,1571C1015.062,1571 1039.404,1584.356 1045.52,1602.209" style="fill:none;stroke:black;stroke-width:25.4px;"/>
            </g>
        </g>
        <g transform="matrix(1,0,0,1,-0.094488,0)">
            <g transform="matrix(-0.602801,0.348027,0.306913,0.531589,6824.589603,124.552446)">
                <path d="M926.48,1602.209C926.48,1602.209 952.869,1570.245 986,1571C1017.407,1571.716 1045.52,1602.209 1045.52,1602.209" style="fill:none;stroke:black;stroke-width:25.4px;"/>
            </g>
        </g>
        <g transform="matrix(1,0,0,1,-0.094488,0)">
            <g id="shoes" transform="matrix(0.870777,0,0,0.870777,5755.882204,-171.984807)">
                <g transform="matrix(1.560113,0,0,1.104934,-285.216062,-223.848297)">
                    <path d="M796,2295.238C796,2295.238 778.739,2295 776,2295C732.923,2295 736,2277.973 736,2257C736,2236.027 753.923,2219 776,2219C792.061,2219 805.924,2228.013 812.287,2241L852,2241L852,2295.238L796,2295.238Z" style="fill:rgb(131,131,131);stroke:black;stroke-width:14.16px;"/>
                </g>
                <g transform="matrix(1.560113,0,0,1.104934,-130.69033,-223.848297)">
                    <path d="M796,2295.238C796,2295.238 778.739,2295 776,2295C732.923,2295 736,2277.973 736,2257C736,2236.027 753.923,2219 776,2219C792.061,2219 805.924,2228.013 812.287,2241L852,2241L852,2295.238L796,2295.238Z" style="fill:rgb(131,131,131);stroke:black;stroke-width:14.16px;"/>
                </g>
            </g>
        </g>
        <g transform="matrix(1,0,0,1,-0.094488,0)">
            <g transform="matrix(-0.474832,0.156634,0.118826,0.360218,9656.392589,-347.534847)">
                <path d="M6778.298,1117C6766.089,1133.965 6735.619,1146 6700,1146C6664.381,1146 6633.911,1133.965 6621.702,1117" style="fill:none;stroke:rgb(129,129,129);stroke-width:37.56px;"/>
            </g>
        </g>
        <g transform="matrix(1,0,0,1,-0.094488,0)">
            <g transform="matrix(0.474832,0.156634,-0.118826,0.360218,3705.149457,-347.534847)">
                <path d="M6778.298,1117C6766.089,1133.965 6735.619,1146 6700,1146C6664.381,1146 6633.911,1133.965 6621.702,1117" style="fill:none;stroke:rgb(129,129,129);stroke-width:37.56px;"/>
            </g>
        </g>
    </g>
</svg>
