<?xml version="1.0" encoding="UTF-8" standalone="no"?>
<!DOCTYPE svg PUBLIC "-//W3C//DTD SVG 1.1//EN" "http://www.w3.org/Graphics/SVG/1.1/DTD/svg11.dtd">
<svg width="100%" height="100%" viewBox="0 0 1595 3716" version="1.1" xmlns="http://www.w3.org/2000/svg" xmlns:xlink="http://www.w3.org/1999/xlink" xml:space="preserve" xmlns:serif="http://www.serif.com/" style="fill-rule:evenodd;clip-rule:evenodd;stroke-linecap:round;stroke-linejoin:round;stroke-miterlimit:1.5;">
    <g transform="matrix(1,0,0,1,-664.513302,-105.15621)">
        <g transform="matrix(1.311881,0,0,1.475138,44.726914,-2050.648192)">
            <path d="M472.441,3980.315L472.441,2052.597C472.441,1936.574 578.2,1842.52 708.661,1842.52L708.662,1842.52C839.122,1842.52 944.882,1936.574 944.882,2052.597C944.882,2591.39 944.882,3980.315 944.882,3980.315" style="fill:url(#_Linear1);"/>
        </g>
        <g transform="matrix(1.311881,0,0,1.475138,817.705786,-1353.732544)">
            <path d="M472.441,3507.874L472.441,2194.329C472.441,2138.613 497.328,2085.179 541.628,2045.782C585.928,2006.385 646.012,1984.252 708.661,1984.252L708.662,1984.252C771.311,1984.252 831.395,2006.385 875.695,2045.782C919.994,2085.179 944.882,2138.613 944.882,2194.329L944.882,3507.874" style="fill:url(#_Linear2);"/>
        </g>
        <g transform="matrix(1.311881,0,0,1.475138,221.892268,-656.816897)">
            <path d="M472.441,3035.433L472.441,2288.817C472.441,2233.101 497.328,2179.668 541.628,2140.27C585.928,2100.873 646.012,2078.74 708.661,2078.74L708.662,2078.74C771.311,2078.74 831.395,2100.873 875.695,2140.27C919.994,2179.668 944.882,2233.101 944.882,2288.817L944.882,3035.433" style="fill:rgb(231,249,206);"/>
        </g>
        <g transform="matrix(1.311881,0,0,1.475138,1019.136362,-12.169922)">
            <path d="M472.441,2598.425L472.441,2336.062C472.441,2280.346 497.328,2226.912 541.628,2187.514C585.928,2148.117 646.012,2125.984 708.661,2125.984L708.662,2125.984C771.311,2125.984 831.395,2148.117 875.695,2187.514C919.994,2226.912 944.882,2280.346 944.882,2336.062L944.882,2598.425" style="fill:rgb(255,189,238);"/>
        </g>
        <g transform="matrix(0.594361,0,0,0.594361,974.406496,386.239522)">
            <g transform="matrix(1,0,0,1,-322.916667,-472.916667)">
                <g transform="matrix(4.166667,0,0,4.166667,0,0)">
                    <path d="M89.522,144.797L101.06,171.983C100.493,174.481 101.299,176.551 102.376,179.087C103.452,181.623 104.639,184.248 106.829,185.576L119.182,214.681L139.33,205.414L126.977,176.309C127.544,173.811 126.738,171.741 125.661,169.205C124.585,166.669 123.398,164.044 121.208,162.716L107.238,129.801" style="fill:rgb(255,165,233);stroke:black;stroke-width:4px;"/>
                </g>
                <g transform="matrix(4.166667,0,0,4.166667,0,0)">
                    <path d="M134.807,207.724C134.807,207.724 139.927,205.491 140.743,205.145C153.575,199.699 151.134,196.495 149.256,192.071C147.378,187.646 140.514,186.32 133.938,189.111C129.153,191.142 125.831,194.796 125.098,198.34L113.268,203.361L118.125,214.804L134.807,207.724Z" style="fill:rgb(206,245,151);stroke:black;stroke-width:4px;"/>
                </g>
                <g transform="matrix(4.166667,0,0,4.166667,0,0)">
                    <circle cx="77.089" cy="77.089" r="75.089" style="fill:rgb(255,165,233);stroke:black;stroke-width:4px;"/>
                </g>
                <g transform="matrix(4.166667,0,0,4.166667,0,0)">
                    <path d="M84.95,148.493L84.95,178.027C86.448,180.105 86.915,182.655 86.915,185.41C86.915,188.165 86.447,190.715 84.95,192.793L84.95,224.411L63.378,224.411L63.378,192.793C61.88,190.715 61.62,188.165 61.62,185.41C61.62,182.655 61.88,180.105 63.378,178.027L63.378,148.493" style="fill:rgb(255,165,233);stroke:black;stroke-width:4px;"/>
                </g>
                <g transform="matrix(4.166667,0,0,4.166667,0,0)">
                    <path d="M107.58,64.812L112.285,68.273L107.58,71.734" style="fill:none;stroke:rgb(212,134,196);stroke-width:2px;"/>
                    <path d="M112.286,68.273L104.262,68.273" style="fill:none;stroke:rgb(212,134,196);stroke-width:2px;"/>
                </g>
                <g transform="matrix(4.166667,0,0,4.166667,0,0)">
                    <path d="M118.843,67.547C119.857,64.936 123.893,62.984 128.712,62.984C133.531,62.984 137.567,64.937 138.581,67.547" style="fill:none;stroke:black;stroke-width:4px;"/>
                </g>
                <g transform="matrix(4.166667,0,0,4.166667,0,0)">
                    <path d="M116.759,87.122C116.759,87.122 118.211,93.357 123.024,96.008C127.586,98.521 133.852,96.99 133.852,96.99" style="fill:none;stroke:black;stroke-width:4px;"/>
                </g>
                <g transform="matrix(4.166667,0,0,4.166667,0,0)">
                    <path d="M79.851,224.411C79.851,224.411 85.437,224.356 86.323,224.356C100.263,224.356 99.267,220.453 99.267,215.647C99.267,210.84 93.467,206.938 86.323,206.938C81.125,206.938 76.639,209.004 74.58,211.98L61.728,211.98L61.728,224.411L79.851,224.411Z" style="fill:rgb(206,245,151);stroke:black;stroke-width:4px;"/>
                </g>
            </g>
        </g>
    </g>
    <defs>
        <linearGradient id="_Linear1" x1="0" y1="0" x2="1" y2="0" gradientUnits="userSpaceOnUse" gradientTransform="matrix(414.143515,2049.721313,-2304.798693,368.309298,530.738375,1922.586924)"><stop offset="0" style="stop-color:rgb(255,248,173);stop-opacity:1"/><stop offset="1" style="stop-color:white;stop-opacity:1"/></linearGradient>
        <linearGradient id="_Linear2" x1="0" y1="0" x2="1" y2="0" gradientUnits="userSpaceOnUse" gradientTransform="matrix(360.124796,1473.237194,-1656.57406,320.268955,553.736443,2026.630098)"><stop offset="0" style="stop-color:rgb(216,231,255);stop-opacity:1"/><stop offset="1" style="stop-color:white;stop-opacity:1"/></linearGradient>
    </defs>
</svg>
